<svg data-v-423bf9ae="" xmlns="http://www.w3.org/2000/svg" viewBox="0 0 462 90" class="iconLeft"><!----><!----><!----><g data-v-423bf9ae="" id="0aa375c2-f368-4580-a387-0c49e4a62652" fill="#000000" transform="matrix(5.0675675022593385,0,0,5.0675675022593385,119.23444373813948,-2.6858103927946004)"><path d="M4.20 3.54L4.20 3.54L4.20 3.54Q3.23 3.51 2.48 4.17L2.48 4.17L2.48 4.17Q1.73 4.83 1.16 5.80L1.16 5.80L1.16 5.80Q0.58 6.77 0.39 7.92L0.39 7.92L0.39 7.92Q0.21 9.06 0.53 9.99L0.53 9.99L0.53 9.99Q0.85 10.92 1.42 11.60L1.42 11.60L1.42 11.60Q2.00 12.28 2.82 12.57L2.82 12.57L2.82 12.57Q3.64 12.86 4.42 12.54L4.42 12.54L4.42 12.54Q5.20 12.22 6.06 11.03L6.06 11.03L5.78 10.75L5.78 10.75Q4.44 12.14 3.08 11.32L3.08 11.32L3.08 11.32Q1.72 10.49 1.30 8.87L1.30 8.87L1.30 8.87Q0.88 7.25 1.53 5.98L1.53 5.98L1.53 5.98Q2.18 4.71 3.28 4.50L3.28 4.50L3.28 4.50Q4.39 4.29 4.77 4.83L4.77 4.83L4.77 4.83Q5.15 5.37 4.86 5.63L4.86 5.63L4.97 5.74L5.89 5.09L5.89 5.09Q6.04 4.69 5.60 4.13L5.60 4.13L5.60 4.13Q5.16 3.56 4.20 3.54ZM9.02 6.45L9.02 6.45Q7.87 7.21 7.39 7.77L7.39 7.77L7.39 7.77Q6.92 8.33 6.73 8.89L6.73 8.89L6.73 8.89Q6.54 9.46 6.66 10.32L6.66 10.32L6.66 10.32Q6.79 11.17 7.66 11.96L7.66 11.96L7.66 11.96Q8.52 12.75 9.04 12.75L9.04 12.75L9.04 12.75Q9.56 12.76 10.68 11.73L10.68 11.73L10.68 11.73Q11.11 11.34 11.50 10.82L11.50 10.82L11.50 10.82Q11.89 10.31 12.01 9.74L12.01 9.74L12.01 9.74Q12.12 9.17 11.95 8.50L11.95 8.50L11.95 8.50Q11.77 7.83 10.96 7.04L10.96 7.04L10.96 7.04Q10.16 6.25 9.02 6.45L9.02 6.45ZM8.65 7.26L8.65 7.26L8.65 7.26Q9.44 7.08 10.38 8.24L10.38 8.24L10.38 8.24Q11.31 9.41 11.12 10.23L11.12 10.23L11.12 10.23Q10.92 11.06 10.26 11.56L10.26 11.56L10.26 11.56Q9.60 12.05 8.87 11.45L8.87 11.45L8.87 11.45Q8.13 10.84 7.69 10.15L7.69 10.15L7.69 10.15Q7.25 9.46 7.56 8.45L7.56 8.45L7.56 8.45Q7.87 7.43 8.65 7.26ZM17.83 7.75L17.86 8.42L17.86 8.42Q18.69 7.22 19.70 7.23L19.70 7.23L19.70 7.23Q20.71 7.23 20.60 8.74L20.60 8.74L20.60 8.74Q20.58 11.40 20.62 11.89L20.62 11.89L20.62 11.89Q20.67 12.39 21.25 12.74L21.25 12.74L22.36 11.93L22.29 11.77L22.29 11.77Q21.59 12.26 21.63 10.05L21.63 10.05L21.63 10.05Q21.66 7.83 21.53 7.37L21.53 7.37L21.53 7.37Q21.40 6.90 20.68 6.60L20.68 6.60L20.68 6.60Q19.95 6.29 19.32 6.64L19.32 6.64L19.32 6.64Q18.68 6.99 18.40 7.22L18.40 7.22L18.40 7.22Q18.12 7.44 17.83 7.75L17.83 7.75ZM13.82 6.55L12.53 7.42L12.61 7.57L12.61 7.57Q13.23 7.20 13.25 8.48L13.25 8.48L13.25 8.48Q13.18 11.45 13.27 11.91L13.27 11.91L13.27 11.91Q13.36 12.37 13.93 12.71L13.93 12.71L15.00 12.00L15.00 11.84L15.00 11.84Q14.43 11.92 14.35 11.07L14.35 11.07L14.35 11.07Q14.27 10.23 14.34 8.33L14.34 8.33L14.34 8.33Q15.07 7.22 16.07 7.23L16.07 7.23L16.07 7.23Q17.08 7.23 16.97 8.74L16.97 8.74L16.97 8.74Q16.95 11.40 17.00 11.89L17.00 11.89L17.00 11.89Q17.05 12.39 17.63 12.74L17.63 12.74L18.74 11.93L18.66 11.77L18.66 11.77Q17.97 12.26 18.01 10.05L18.01 10.05L18.01 10.05Q18.04 7.83 17.91 7.37L17.91 7.37L17.91 7.37Q17.78 6.90 17.06 6.60L17.06 6.60L17.06 6.60Q16.33 6.29 15.70 6.64L15.70 6.64L15.70 6.64Q15.06 6.99 14.78 7.22L14.78 7.22L14.78 7.22Q14.50 7.44 14.31 7.66L14.31 7.66L14.31 7.66Q14.38 6.81 13.82 6.55L13.82 6.55ZM23.97 6.60L22.66 7.60L22.83 7.76L22.83 7.76Q23.52 7.01 23.47 10.69L23.47 10.69L22.79 11.17L22.79 11.17Q23.00 11.39 23.39 11.74L23.39 11.74L23.39 11.74Q23.28 14.64 23.95 15.33L23.95 15.33L24.85 14.73L24.85 14.73Q24.29 14.10 24.38 12.30L24.38 12.30L24.38 12.30Q25.14 12.65 26.09 12.32L26.09 12.32L26.09 12.32Q27.04 11.98 27.62 11.33L27.62 11.33L27.62 11.33Q28.20 10.67 28.51 9.68L28.51 9.68L28.51 9.68Q28.83 8.70 28.21 7.54L28.21 7.54L28.21 7.54Q27.59 6.38 26.01 6.56L26.01 6.56L24.48 7.75L24.48 7.75Q24.53 7.04 23.97 6.60L23.97 6.60ZM24.53 8.14L24.53 8.14Q25.58 7.09 26.46 7.68L26.46 7.68L26.46 7.68Q27.34 8.28 27.48 9.45L27.48 9.45L27.48 9.45Q27.62 10.62 27.27 11.12L27.27 11.12L27.27 11.12Q26.91 11.61 26.26 11.70L26.26 11.70L26.26 11.70Q25.61 11.79 24.52 11.16L24.52 11.16L24.53 8.14ZM34.42 12.76L35.79 11.83L35.70 11.71L35.70 11.71Q35.08 12.12 35.09 10.52L35.09 10.52L35.09 10.52Q35.27 7.62 35.21 7.19L35.21 7.19L35.21 7.19Q35.14 6.76 34.56 6.37L34.56 6.37L33.48 7.08L33.53 7.21L33.53 7.21Q34.08 6.89 34.08 7.90L34.08 7.90L34.08 7.90Q34.08 8.91 34.01 10.80L34.01 10.80L34.01 10.80Q32.70 12.24 31.74 11.95L31.74 11.95L31.74 11.95Q30.78 11.66 30.92 9.75L30.92 9.75L30.92 9.75Q30.95 7.70 30.91 7.22L30.91 7.22L30.91 7.22Q30.86 6.73 30.26 6.36L30.26 6.36L29.22 7.10L29.31 7.25L29.31 7.25Q29.79 7.01 29.86 7.94L29.86 7.94L29.86 7.94Q29.93 8.88 29.86 10.32L29.86 10.32L29.86 10.32Q29.81 11.20 30.08 11.78L30.08 11.78L30.08 11.78Q30.34 12.37 31.02 12.61L31.02 12.61L31.02 12.61Q31.70 12.84 32.51 12.50L32.51 12.50L32.51 12.50Q33.33 12.15 33.98 11.46L33.98 11.46L33.98 11.46Q33.89 12.41 34.42 12.76L34.42 12.76ZM38.11 3.96L37.25 4.63L37.25 4.63Q37.73 4.55 37.57 6.59L37.57 6.59L37.00 6.62L36.06 7.56L36.22 7.83L36.22 7.83Q36.65 7.33 37.49 7.41L37.49 7.41L37.49 7.41Q37.35 11.04 37.49 11.58L37.49 11.58L37.49 11.58Q37.63 12.11 38.21 12.68L38.21 12.68L38.21 12.68Q38.66 12.24 39.93 11.30L39.93 11.30L39.85 10.98L39.85 10.98Q38.55 11.88 38.45 10.99L38.45 10.99L38.45 10.99Q38.34 10.09 38.47 7.46L38.47 7.46L39.30 7.46L39.93 6.75L39.87 6.61L38.51 6.64L38.51 4.83L38.51 4.83Q38.44 4.25 38.11 3.96L38.11 3.96ZM43.78 6.60L43.78 6.60L43.78 6.60Q42.72 6.43 41.79 7.26L41.79 7.26L41.79 7.26Q40.86 8.09 40.60 9.20L40.60 9.20L40.60 9.20Q40.34 10.31 40.76 11.26L40.76 11.26L40.76 11.26Q41.18 12.22 42.32 12.62L42.32 12.62L42.32 12.62Q43.25 12.93 44.26 12.18L44.26 12.18L44.26 12.18Q45.26 11.43 45.37 10.84L45.37 10.84L45.17 10.68L45.17 10.68Q44.34 11.85 43.57 11.81L43.57 11.81L43.57 11.81Q42.79 11.76 42.40 11.46L42.40 11.46L42.40 11.46Q42.01 11.15 41.80 10.80L41.80 10.80L43.70 9.54L43.70 9.54Q45.14 8.65 44.99 7.70L44.99 7.70L44.99 7.70Q44.85 6.76 43.78 6.60ZM41.35 8.75L41.35 8.75L41.35 8.75Q41.36 8.12 41.86 7.58L41.86 7.58L41.86 7.58Q42.37 7.04 42.97 7.19L42.97 7.19L42.97 7.19Q43.57 7.34 43.80 8.00L43.80 8.00L43.80 8.00Q44.04 8.67 43.74 9.02L43.74 9.02L43.74 9.02Q43.45 9.37 41.62 10.40L41.62 10.40L41.62 10.40Q41.47 10.04 41.41 9.71L41.41 9.71L41.41 9.71Q41.34 9.37 41.35 8.75ZM46.94 6.46L45.72 7.35L45.83 7.52L45.83 7.52Q46.41 7.06 46.42 8.50L46.42 8.50L46.42 8.50Q46.35 11.46 46.44 11.91L46.44 11.91L46.44 11.91Q46.53 12.37 47.16 12.71L47.16 12.71L48.22 11.87L48.14 11.75L48.14 11.75Q47.60 11.96 47.50 11.08L47.50 11.08L47.50 11.08Q47.39 10.19 47.47 8.11L47.47 8.11L47.47 8.11Q48.48 6.60 49.30 8.12L49.30 8.12L50.18 7.42L50.18 7.42Q49.90 6.74 49.44 6.57L49.44 6.57L49.44 6.57Q48.98 6.39 48.55 6.58L48.55 6.58L48.55 6.58Q48.11 6.76 47.40 7.66L47.40 7.66L47.40 7.66Q47.46 6.82 46.94 6.46L46.94 6.46ZM54.56 3.71L53.54 4.35L53.63 4.54L53.63 4.54Q53.94 4.23 54.06 5.67L54.06 5.67L54.02 11.19L54.02 11.19Q54.03 12.36 54.59 12.71L54.59 12.71L55.44 12.01L55.44 12.01Q55.93 11.62 56.51 12.12L56.51 12.12L56.51 12.12Q57.09 12.63 57.63 12.73L57.63 12.73L58.59 11.76L58.45 11.61L58.45 11.61Q58.20 11.81 58.01 11.71L58.01 11.71L58.01 11.71Q57.81 11.62 57.40 11.25L57.40 11.25L57.40 11.25Q56.99 10.88 56.38 10.96L56.38 10.96L55.28 11.56L55.28 11.56Q55.16 11.14 55.17 10.73L55.17 10.73L55.16 5.20L55.16 5.20Q55.15 3.99 54.56 3.71L54.56 3.71ZM59.87 3.68L59.14 4.38L59.14 4.38Q59.68 4.68 59.81 5.35L59.81 5.35L59.81 5.35Q60.81 4.81 60.59 4.32L60.59 4.32L60.59 4.32Q60.37 3.83 59.87 3.68L59.87 3.68ZM59.29 7.41L59.29 7.41Q59.62 7.39 59.54 9.19L59.54 9.19L59.54 9.19Q59.51 11.33 59.55 11.84L59.55 11.84L59.55 11.84Q59.60 12.35 60.16 12.68L60.16 12.68L60.96 11.84L60.96 11.84Q60.52 11.73 60.57 10.31L60.57 10.31L60.57 10.31Q60.59 7.65 60.58 7.25L60.58 7.25L60.58 7.25Q60.56 6.85 60.20 6.45L60.20 6.45L59.19 7.22L59.29 7.41ZM62.66 3.49L61.71 4.20L61.71 4.20Q62.14 4.68 62.04 7.22L62.04 7.22L62.04 7.22Q61.93 9.76 61.98 10.65L61.98 10.65L61.98 10.65Q62.03 11.55 63.19 12.25L63.19 12.25L63.19 12.25Q64.35 12.96 65.22 12.54L65.22 12.54L65.22 12.54Q66.09 12.13 66.70 11.45L66.70 11.45L66.70 11.45Q67.31 10.77 67.48 9.68L67.48 9.68L67.48 9.68Q67.65 8.60 67.04 7.72L67.04 7.72L67.04 7.72Q66.44 6.84 65.51 6.66L65.51 6.66L65.51 6.66Q64.57 6.48 63.03 7.49L63.03 7.49L63.03 7.49Q63.18 4.43 62.99 3.98L62.99 3.98L62.99 3.98Q62.79 3.52 62.66 3.49L62.66 3.49ZM64.07 7.42L64.07 7.42L64.07 7.42Q64.83 7.31 65.53 7.86L65.53 7.86L65.53 7.86Q66.23 8.40 66.39 9.35L66.39 9.35L66.39 9.35Q66.55 10.29 66.25 11.10L66.25 11.10L66.25 11.10Q65.95 11.91 65.27 11.91L65.27 11.91L65.27 11.91Q64.59 11.91 64.18 11.72L64.18 11.72L64.18 11.72Q63.76 11.53 63.32 11.05L63.32 11.05L63.32 11.05Q62.89 10.56 63.05 8.14L63.05 8.14L63.05 8.14Q63.31 7.52 64.07 7.42Z"></path></g><defs data-v-423bf9ae=""><linearGradient data-v-423bf9ae="" gradientTransform="rotate(25)" id="37a48d50-6107-40d8-bfba-3eb69691beea" x1="0%" y1="0%" x2="100%" y2="0%"><stop data-v-423bf9ae="" offset="0%" style="stop-color: rgb(33, 105, 15); stop-opacity: 1;"></stop><stop data-v-423bf9ae="" offset="100%" style="stop-color: rgb(136, 200, 72); stop-opacity: 1;"></stop></linearGradient></defs><g data-v-423bf9ae="" id="460606f5-c245-41be-b070-f26cae835b56" transform="matrix(1.198242446102869,0,0,1.198242446102869,-9.10387403867363,-15.578143034254857)" stroke="none" fill="url(#37a48d50-6107-40d8-bfba-3eb69691beea)"><path d="M49.569 22.967c-9.975-5.691-20.677-9.125-31.045-9.962v58.351c10.367.814 21.05 4.154 31.045 9.699V22.967zM82.444 13.005c-10.368.838-21.071 4.271-31.045 9.962v58.087c9.993-5.545 20.679-8.885 31.045-9.699v-58.35z"></path><path d="M49.229 84.073c.814.278 1.671.29 2.485.012 11.657-5.043 23.865-7.313 35.798-6.79V19.524a67.09 67.09 0 0 0-3.24-.055v53.594l-.852.056c-10.672.697-21.732 4.177-32.021 10.048a2.826 2.826 0 0 1-1.83 0c-10.29-5.871-21.349-9.351-32.021-10.048l-.854-.056V19.469a65.788 65.788 0 0 0-3.239.055v57.771c11.932-.524 24.114 1.735 35.774 6.778z"></path><path d="M92.579 26.009c-1.07-.149-2.157-.228-3.237-.335v53.55l-.968-.056c-12.195-.699-25.06 1.777-36.975 7.065l-.916.381-.915-.381c-11.917-5.288-24.781-7.765-36.976-7.065l-.967.056v-53.55c-1.081.108-2.168.187-3.238.335v58.707a4.876 4.876 0 0 1 1.044.748c12.951-1.75 26.393-1.536 39.18 2.651a19.022 19.022 0 0 1 1.873-.095c.661 0 1.285.037 1.872.095 12.785-4.188 26.229-4.401 39.179-2.651 0 0 .474-.462 1.044-.748V26.009z"></path></g><!----></svg>